<?xml version="1.0" encoding="utf-8"?>
<!-- Generator: Adobe Illustrator 16.0.0, SVG Export Plug-In . SVG Version: 6.00 Build 0)  -->
<!DOCTYPE svg PUBLIC "-//W3C//DTD SVG 1.1//EN" "http://www.w3.org/Graphics/SVG/1.1/DTD/svg11.dtd">
<svg version="1.1" id="Layer_1" xmlns="http://www.w3.org/2000/svg" xmlns:xlink="http://www.w3.org/1999/xlink" x="0px" y="0px"
	 width="288px" height="67px" viewBox="0 0 288 67" enable-background="new 0 0 288 67" xml:space="preserve">
<g>
	<g>
		<path fill="#FFFFFF" d="M20,1.01c88.238,0,176.477,0.024,264.714-0.089c3.493-0.004,4.447,0.572,4.399,4.295
			c-0.244,19.309-0.234,38.625-0.011,57.935c0.045,3.823-0.439,5.013-4.735,4.99C243.579,67.921,202.789,68.01,162,68.01
			c7.122-4.151,6.655-10.958,5.97-17.674c-0.674-6.6-3.153-12.962-2.665-19.737c0.069-0.958,0.037-2.311-1.157-2.456
			c-1.873-0.227-1.364,1.465-1.467,2.472c-0.17,1.669-0.001,3.708-2.269,3.783c-2.37,0.078-3.477-1.807-3.877-3.875
			c-0.281-1.45-0.064-2.99-0.17-4.482c-0.082-1.164-0.236-2.69-1.729-2.553c-1.335,0.123-1.54,1.626-1.467,2.793
			c0.164,2.634,1.102,5.267,0.01,7.888c-0.506,1.213-0.938,2.696-2.543,2.757c-1.304,0.049-2.053-1.062-2.547-2.119
			c-0.772-1.651-1.517-3.338-2.042-5.08c-1.656-5.482-1.786-11.145-1.83-16.815c-0.009-1.112-0.002-2.709-1.607-2.541
			c-1.136,0.12-0.921,1.579-0.929,2.523c-0.042,4.996,0.125,10-0.12,14.985c-0.107,2.181,0.01,5.522-2.581,5.812
			c-2.239,0.25-2.734-2.988-3.409-4.938c-2.085-6.026-2.539-12.366-3.219-18.654c-0.081-0.749,0.052-1.867-1.134-1.79
			c-0.342,0.022-0.941,0.979-0.888,1.445c0.871,7.586-0.791,14.91-2.183,22.265c-0.147,0.778-0.403,1.865,0.658,2.033
			c1.02,0.16,1.174-0.952,1.413-1.732c0.604-1.97,0.346-4.233,1.989-5.851c0.804,1.808,1.584,3.626,2.42,5.419
			c0.421,0.904,0.857,1.821,1.433,2.629c2.242,3.148,4.373,3.493,6.195-0.388c0.483-1.029,0.912-2.084,1.365-3.127
			c0.626,1.135,1.282,2.256,1.874,3.409c2.836,5.523,4.842,5.979,9.079,2.035c1.671-1.555,8.55,0.539,9.123,2.881
			c1.508,6.162,2.626,12.38,2.116,18.78c-0.247,3.104-0.743,6.361-4.144,7.272c-3.667,0.983-5.376-1.698-6.382-4.81
			c-0.258-0.798-0.558-1.794-1.589-1.381c-0.967,0.387-0.596,1.43-0.395,2.212c0.806,3.134,2.972,5.116,5.695,6.608
			c-51.204,0-102.408-0.058-153.612,0.112c-3.969,0.013-4.55-1.14-4.478-4.703C1.148,51.62,1,39.813,1,28.01
			c4.692,10.308,9.825,12.695,20.64,9.053c2.499-0.842,3.707,0.633,5.42,1.401c5.025,2.252,9.519-0.603,9.196-5.777
			c-0.069-1.109-1.4-2.897-0.363-3.072c1.377-0.233,1.167,1.99,1.756,3.09c2.405,4.498,3.442,11.159,11.217,6.67
			c1.052-0.608,1.814,0.441,2.639,0.945c4.755,2.901,8.192,1.678,10.402-3.348c1.15-2.614,2.051-4.486,4.349-0.518
			c2.819,4.867,6.01,5.137,9.85,1.139c1.249-1.3,2.17-1.718,3.832-1.004c4.371,1.877,6.69,0.233,7.08-4.399
			c0.158-1.881,0.271-3.811,2.839-3.901c2.491-0.087,4.17,1.045,4.736,3.519c0.482,2.109,0.7,4.286,1.275,6.366
			c0.665,2.404,2.147,4.155,4.838,4.386c0.803,0.068,2.055-0.91,1.27-1.174c-6.022-2.023-3.776-7.974-5.917-11.771
			c-1.554-2.756-3.998-3.996-7.073-3.723c-2.433,0.216-3.817,1.695-4.239,4.184c-0.306,1.805,0.898,4.56-1.844,5.062
			c-2.308,0.423-3.801-1.656-5.199-3.341c-0.716-0.864-1.783-2.475-2.244-2.33c-1.826,0.576-0.6,2.205-0.62,3.401
			c-0.042,2.42-0.079,5.18-3.165,5.282c-2.687,0.089-4.192-2.296-4.251-4.74c-0.101-4.199-0.206-7.015-4.154-1.754
			c-0.632,0.842-1.692,0.54-2.723,0.062c-9.227-4.267-9.254-4.25-12.781,4.369c-1.229,3.003-3.059,3.337-5.346,1.235
			c-3.506-3.223-4.368-10.334-1.861-14.5c2.804-4.659,3.724-9.609,1.938-14.826c-0.708-2.066-1.878-4.244-4.485-3.997
			C35.226,4.263,34.9,6.81,34.828,8.938c-0.135,3.988-0.406,8.065,0.238,11.963c0.81,4.897-0.3,6.858-5.594,6.346
			c-3.659-0.354-7.659-0.109-7.187,5.587c0.14,1.692-1.533,2.381-2.951,2.993c-7.112,3.071-15.118-1.464-15.998-9.224
			c-0.898-7.926,1.688-14.852,6.959-20.658c2.335-2.574,5.199-4.988,9.164-2.571c0.582,0.355,1.418,0.682,1.508-0.223
			C21.034,2.477,20.35,1.727,20,1.01z M256.705,42.808c-0.498,0.019-0.996,0.042-1.494,0.054c-4.632,0.101-6.522-3.13-8.427-6.624
			c-1.91-3.507,1.07-4.549,2.675-6.454c2.344-2.783,3.302-6.114,2.99-9.751c-0.254-2.957-0.964-5.959-4.527-6.134
			c-3.284-0.161-4.243,2.733-4.997,5.326c-0.317,1.094-0.207,2.307-0.337,3.461c-0.398,3.571,1.958,9.043-5.438,7.874
			c-0.371-0.059-0.869,1.229-1.448,1.727c-0.324,0.279,0.656,2.364-0.919,0.845c-4.479-4.323-10.4,0.4-15.135-2.477
			c-0.392-0.237-1.896,0.687-2.392,1.408c-2.054,2.992-2.292,6.243-0.341,9.356c1.333,2.128,3.444,3.259,5.992,2.468
			c3.552-1.104,4.929-3.736,4.418-7.347c-0.226-1.6-0.487-3.056,1.825-3.159c1.751-0.079,3.481,0.022,4.092,1.989
			c0.437,1.406,0.388,2.956,0.723,4.403c0.288,1.24,0.439,2.99,2.119,2.911c1.692-0.08,1.618-1.843,1.8-3.099
			c0.143-0.977-0.006-1.991,0.071-2.981c0.107-1.368-1.082-3.411,0.926-3.883c1.912-0.449,4.006,0.166,5.107,2.212
			c0.863,1.604,1.425,3.396,2.441,4.887c2.839,4.161,6.361,6.857,11.756,4.539c2.553,1.408,5.222,1.614,7.449-0.321
			c2.052-1.783,3.474-2.365,4.766,0.591c0.239,0.546,0.862,1.251,1.479,0.605c0.315-0.33,0.297-1.335,0.031-1.812
			c-2.067-3.716-1.626-7.677-1.429-11.668c0.209-4.229-1.071-8.196-2.722-12.034c-0.375-0.874-0.841-2.027-2.063-1.761
			c-1.291,0.282-1.098,1.585-0.978,2.471c0.689,5.087,1.309,10.196,2.33,15.221c0.54,2.656-0.201,4.561-2.015,6.225
			c-1.24,1.139-2.653,2.158-4.445,1.056c-1.499-0.922-1.601-2.434-1.395-3.967c0.232-1.728,0.84-3.114,2.822-3.642
			c0.969-0.258,3.204,1.61,2.765-0.898c-0.312-1.79-2.562-1.969-4.204-1.113C256.665,35.354,256.615,39.076,256.705,42.808z
			 M212.305,31.568c0.327-8.619-1.531-15.493-4.495-22.091c-0.619-1.377-1.11-4.019-2.938-3.262
			c-1.395,0.577,0.415,2.54,0.933,3.794c3.341,8.101,5.611,16.386,4.429,25.25c-0.208,1.558-0.312,3.583-2.289,4.104
			c-2.206,0.58-3.321-1.179-4.318-2.695c-2.711-4.124-4.121-8.69-4.407-13.622c-0.058-0.978-0.253-2.307-1.446-2.272
			c-1.307,0.038-0.959,1.452-1.094,2.344c-0.448,2.96-0.678,5.967-1.341,8.876c-0.35,1.53-0.194,4.235-1.819,4.278
			c-2.098,0.056-1.944-2.675-2.39-4.31c-2.071-7.611-1.494-15.544-2.713-23.264c-0.117-0.742-0.604-2.056-0.848-2.04
			c-1.093,0.072-0.863,1.16-0.871,1.889c-0.1,8.521,0.618,16.971,2.764,25.233c0.56,2.156,0.959,5.14,3.712,5.383
			c3.157,0.278,2.874-3.067,3.877-4.998c0.421-0.809,0.02-2.282,1.354-2.265c0.442,0.006,0.904,1.261,1.296,1.979
			c2.035,3.733,3.652,9.192,8.878,7.723C213.791,40.137,211.973,34.405,212.305,31.568z"/>
		<path fill-rule="evenodd" clip-rule="evenodd" d="M20,1.01c0.35,0.717,1.034,1.467,0.967,2.142
			c-0.09,0.905-0.926,0.578-1.508,0.223c-3.964-2.417-6.828-0.003-9.164,2.571c-5.271,5.806-7.857,12.732-6.959,20.658
			c0.879,7.76,8.886,12.295,15.998,9.224c1.418-0.612,3.091-1.301,2.951-2.993c-0.472-5.697,3.528-5.941,7.187-5.587
			c5.294,0.512,6.403-1.449,5.594-6.346c-0.645-3.898-0.373-7.975-0.238-11.963c0.072-2.128,0.398-4.675,3.186-4.939
			c2.606-0.247,3.777,1.931,4.485,3.997c1.786,5.217,0.865,10.167-1.938,14.826c-2.506,4.166-1.645,11.277,1.861,14.5
			c2.287,2.102,4.117,1.768,5.346-1.235c3.526-8.619,3.554-8.636,12.781-4.369c1.031,0.477,2.091,0.78,2.723-0.062
			c3.949-5.261,4.054-2.445,4.154,1.754c0.059,2.444,1.564,4.829,4.251,4.74c3.086-0.102,3.124-2.861,3.165-5.282
			c0.021-1.196-1.206-2.825,0.62-3.401c0.46-0.145,1.527,1.466,2.244,2.33c1.397,1.686,2.891,3.764,5.199,3.341
			c2.742-0.502,1.539-3.257,1.844-5.062c0.422-2.489,1.806-3.968,4.239-4.184c3.075-0.272,5.519,0.967,7.073,3.723
			c2.141,3.797-0.105,9.748,5.917,11.771c0.785,0.264-0.467,1.242-1.27,1.174c-2.691-0.23-4.173-1.981-4.838-4.386
			c-0.575-2.08-0.792-4.256-1.275-6.366c-0.566-2.474-2.246-3.606-4.736-3.519c-2.568,0.091-2.681,2.02-2.839,3.901
			c-0.39,4.633-2.709,6.276-7.08,4.399c-1.662-0.714-2.583-0.296-3.832,1.004c-3.84,3.998-7.031,3.729-9.85-1.139
			c-2.298-3.968-3.199-2.097-4.349,0.518c-2.21,5.025-5.647,6.249-10.402,3.348c-0.825-0.504-1.587-1.554-2.639-0.945
			c-7.775,4.488-8.812-2.173-11.217-6.67c-0.588-1.1-0.379-3.323-1.756-3.09c-1.037,0.175,0.294,1.963,0.363,3.072
			c0.323,5.175-4.171,8.029-9.196,5.777c-1.713-0.769-2.921-2.243-5.42-1.401C10.825,40.705,5.692,38.317,1,28.01
			c0-2.667,0-5.333,0-8c2.042-7.57,5.059-14.524,12-19C15.333,1.01,17.667,1.01,20,1.01z M36.942,14.753
			c0.645,2.215-0.777,5.1,1.307,7.397c2.349-2.22,2.45-5.277,3.037-8.153c0.033-0.161,0.083-0.331,0.064-0.489
			c-0.305-2.562-0.035-6.659-2.616-6.7c-2.753-0.043-1.252,3.955-1.776,6.141C36.847,13.417,36.942,13.934,36.942,14.753z
			 M34.144,33.421c-0.334-1.538-0.982-3.16-2.846-2.524c-1.997,0.681-5.261,0.272-5.332,3.339c-0.048,2.08,2.242,2.579,4.153,2.611
			C32.407,36.885,33.91,35.907,34.144,33.421z M54.216,36.202c-0.964,0.4-2.802-1.281-2.706,0.59c0.099,1.93,2.153,2.712,4.063,2.8
			c1.559,0.072,3.585-0.535,3.218-2.116C58.243,35.119,55.693,36.851,54.216,36.202z M55.082,33.972
			c0.678-0.555,2.656,0.446,2.506-1.215c-0.156-1.736-2.245-1.661-3.649-1.905c-1.118-0.194-2.805-0.1-2.696,1.314
			C51.397,34.184,53.472,33.587,55.082,33.972z M27.389,29.464c-0.139-0.03-0.279-0.059-0.418-0.089
			c0.054,0.094,0.108,0.188,0.163,0.282C27.219,29.592,27.304,29.528,27.389,29.464z"/>
		<path fill-rule="evenodd" clip-rule="evenodd" d="M159,68.01c-2.724-1.492-4.89-3.475-5.695-6.608
			c-0.201-0.782-0.572-1.825,0.395-2.212c1.031-0.413,1.331,0.583,1.589,1.381c1.006,3.111,2.715,5.793,6.382,4.81
			c3.4-0.911,3.896-4.168,4.144-7.272c0.51-6.4-0.608-12.618-2.116-18.78c-0.573-2.342-7.452-4.436-9.123-2.881
			c-4.237,3.943-6.243,3.488-9.079-2.035c-0.592-1.153-1.248-2.273-1.874-3.409c-0.454,1.043-0.882,2.098-1.365,3.127
			c-1.822,3.881-3.953,3.536-6.195,0.388c-0.575-0.808-1.011-1.725-1.433-2.629c-0.835-1.793-1.616-3.612-2.42-5.419
			c-1.643,1.618-1.384,3.881-1.989,5.851c-0.239,0.78-0.393,1.893-1.413,1.732c-1.062-0.168-0.805-1.255-0.658-2.033
			c1.392-7.355,3.054-14.679,2.183-22.265c-0.054-0.466,0.546-1.422,0.888-1.445c1.187-0.077,1.053,1.041,1.134,1.79
			c0.68,6.289,1.133,12.628,3.219,18.654c0.675,1.95,1.17,5.188,3.409,4.938c2.591-0.289,2.474-3.631,2.581-5.812
			c0.245-4.985,0.078-9.989,0.12-14.985c0.008-0.945-0.207-2.404,0.929-2.523c1.604-0.169,1.598,1.428,1.607,2.541
			c0.044,5.671,0.173,11.333,1.83,16.815c0.525,1.741,1.27,3.428,2.042,5.08c0.494,1.058,1.243,2.168,2.547,2.119
			c1.604-0.061,2.037-1.544,2.543-2.757c1.092-2.621,0.154-5.254-0.01-7.888c-0.073-1.167,0.132-2.67,1.467-2.793
			c1.493-0.138,1.647,1.389,1.729,2.553c0.105,1.492-0.111,3.032,0.17,4.482c0.4,2.068,1.507,3.953,3.877,3.875
			c2.268-0.075,2.099-2.114,2.269-3.783c0.103-1.007-0.406-2.699,1.467-2.472c1.194,0.145,1.227,1.497,1.157,2.456
			c-0.488,6.775,1.991,13.137,2.665,19.737c0.686,6.716,1.152,13.522-5.97,17.674C161,68.01,160,68.01,159,68.01z"/>
		<path fill-rule="evenodd" clip-rule="evenodd" fill="#FFFFFF" d="M13,1.01c-6.941,4.476-9.958,11.43-12,19
			C1,14.843,1.224,9.663,0.915,4.515c-0.18-3.009,0.577-3.919,3.593-3.573C7.304,1.262,10.167,1.01,13,1.01z"/>
		<path fill-rule="evenodd" clip-rule="evenodd" d="M258.187,44.36c-5.395,2.318-8.917-0.378-11.756-4.539
			c-1.017-1.49-1.578-3.283-2.441-4.887c-1.102-2.046-3.195-2.661-5.107-2.212c-2.008,0.472-0.818,2.515-0.926,3.883
			c-0.077,0.99,0.071,2.005-0.071,2.981c-0.182,1.256-0.107,3.019-1.8,3.099c-1.68,0.079-1.831-1.671-2.119-2.911
			c-0.335-1.447-0.286-2.997-0.723-4.403c-0.61-1.967-2.341-2.068-4.092-1.989c-2.312,0.103-2.051,1.56-1.825,3.159
			c0.511,3.61-0.866,6.243-4.418,7.347c-2.548,0.791-4.659-0.34-5.992-2.468c-1.951-3.113-1.713-6.364,0.341-9.356
			c0.495-0.722,2-1.646,2.392-1.408c4.734,2.877,10.655-1.846,15.135,2.477c1.575,1.519,0.595-0.566,0.919-0.845
			c0.579-0.499,1.077-1.786,1.448-1.727c7.396,1.169,5.039-4.303,5.438-7.874c0.13-1.154,0.02-2.368,0.337-3.461
			c0.754-2.592,1.713-5.487,4.997-5.326c3.563,0.175,4.273,3.177,4.527,6.134c0.312,3.637-0.646,6.968-2.99,9.751
			c-1.604,1.905-4.585,2.946-2.675,6.454c1.904,3.494,3.795,6.725,8.427,6.624c0.498-0.012,0.996-0.035,1.495-0.053
			C257.2,43.326,257.693,43.844,258.187,44.36z M244.286,24.681c0.376,1.528-0.672,4.105,1.318,4.747
			c2.058,0.664,2.906-1.779,3.65-3.367c1.376-2.934,2.105-5.979,0.205-9.024c-0.59-0.945-1.552-1.592-2.463-0.793
			C244.518,18.419,244.567,21.52,244.286,24.681z M218.013,36.957c0.151,2.378,0.522,4.556,3.403,4.71
			c2.378,0.127,3.836-1.276,3.977-3.528c0.23-3.68-3.111-3.356-5.245-3.965C217.681,33.47,218.381,35.812,218.013,36.957z"/>
		<path fill-rule="evenodd" clip-rule="evenodd" d="M212.305,31.568c-0.332,2.837,1.486,8.569-3.728,10.035
			c-5.226,1.47-6.843-3.989-8.878-7.723c-0.392-0.718-0.854-1.973-1.296-1.979c-1.335-0.018-0.934,1.456-1.354,2.265
			c-1.003,1.931-0.72,5.276-3.877,4.998c-2.753-0.243-3.152-3.228-3.712-5.383c-2.146-8.262-2.863-16.712-2.764-25.233
			c0.008-0.729-0.222-1.817,0.871-1.889c0.244-0.017,0.73,1.297,0.848,2.04c1.219,7.72,0.642,15.653,2.713,23.264
			c0.445,1.634,0.292,4.365,2.39,4.31c1.625-0.043,1.47-2.748,1.819-4.278c0.663-2.909,0.893-5.916,1.341-8.876
			c0.135-0.892-0.213-2.306,1.094-2.344c1.193-0.035,1.389,1.294,1.446,2.272c0.286,4.931,1.696,9.498,4.407,13.622
			c0.997,1.517,2.112,3.275,4.318,2.695c1.978-0.521,2.081-2.546,2.289-4.104c1.183-8.864-1.088-17.149-4.429-25.25
			c-0.518-1.254-2.327-3.217-0.933-3.794c1.828-0.756,2.319,1.885,2.938,3.262C210.773,16.075,212.632,22.949,212.305,31.568z"/>
		<path fill-rule="evenodd" clip-rule="evenodd" d="M258.187,44.36c-0.493-0.517-0.986-1.034-1.48-1.552
			c-0.091-3.732-0.041-7.454,3.873-9.496c1.642-0.856,3.892-0.677,4.204,1.113c0.439,2.509-1.796,0.641-2.765,0.898
			c-1.982,0.527-2.59,1.914-2.822,3.642c-0.206,1.533-0.104,3.045,1.395,3.967c1.792,1.103,3.205,0.083,4.445-1.056
			c1.813-1.664,2.555-3.568,2.015-6.225c-1.021-5.025-1.641-10.134-2.33-15.221c-0.12-0.885-0.313-2.189,0.978-2.471
			c1.223-0.266,1.688,0.887,2.063,1.761c1.65,3.838,2.931,7.805,2.722,12.034c-0.197,3.991-0.639,7.952,1.429,11.668
			c0.266,0.478,0.284,1.482-0.031,1.812c-0.617,0.646-1.24-0.06-1.479-0.605c-1.292-2.956-2.714-2.374-4.766-0.591
			C263.408,45.975,260.739,45.769,258.187,44.36z M268.43,30.649c-0.028,0.142-0.085,0.286-0.073,0.424
			c0.008,0.089,0.116,0.17,0.179,0.255c0.027-0.142,0.084-0.286,0.072-0.424C268.6,30.815,268.492,30.734,268.43,30.649z"/>
		<path fill-rule="evenodd" clip-rule="evenodd" fill="#FFFFFF" d="M36.942,14.753c0-0.819-0.096-1.337,0.017-1.804
			c0.524-2.186-0.977-6.184,1.776-6.141c2.581,0.041,2.311,4.138,2.616,6.7c0.019,0.158-0.032,0.328-0.064,0.489
			c-0.587,2.876-0.688,5.934-3.037,8.153C36.165,19.854,37.587,16.969,36.942,14.753z"/>
		<path fill-rule="evenodd" clip-rule="evenodd" fill="#FFFFFF" d="M34.144,33.421c-0.233,2.486-1.737,3.464-4.024,3.426
			c-1.911-0.032-4.201-0.531-4.153-2.611c0.071-3.067,3.334-2.658,5.332-3.339C33.162,30.261,33.81,31.883,34.144,33.421z"/>
		<path fill-rule="evenodd" clip-rule="evenodd" fill="#FFFFFF" d="M54.216,36.202c1.478,0.648,4.027-1.083,4.575,1.273
			c0.367,1.581-1.659,2.188-3.218,2.116c-1.91-0.088-3.964-0.87-4.063-2.8C51.414,34.921,53.252,36.603,54.216,36.202z"/>
		<path fill-rule="evenodd" clip-rule="evenodd" fill="#FFFFFF" d="M55.082,33.972c-1.61-0.385-3.684,0.212-3.839-1.806
			c-0.108-1.414,1.579-1.508,2.696-1.314c1.404,0.244,3.493,0.168,3.649,1.905C57.737,34.418,55.759,33.417,55.082,33.972z"/>
		<path fill-rule="evenodd" clip-rule="evenodd" fill="#FFFFFF" d="M27.389,29.464c-0.085,0.064-0.17,0.128-0.255,0.193
			c-0.055-0.094-0.109-0.188-0.163-0.282C27.11,29.405,27.25,29.434,27.389,29.464z"/>
		<path fill-rule="evenodd" clip-rule="evenodd" fill="#FFFFFF" d="M244.286,24.681c0.281-3.161,0.231-6.262,2.711-8.437
			c0.911-0.799,1.873-0.152,2.463,0.793c1.9,3.045,1.171,6.09-0.205,9.024c-0.744,1.587-1.593,4.03-3.65,3.367
			C243.614,28.786,244.662,26.209,244.286,24.681z"/>
		<path fill-rule="evenodd" clip-rule="evenodd" fill="#FFFFFF" d="M218.013,36.957c0.368-1.146-0.332-3.487,2.135-2.783
			c2.134,0.608,5.476,0.285,5.245,3.965c-0.141,2.252-1.599,3.655-3.977,3.528C218.535,41.513,218.164,39.335,218.013,36.957z"/>
		<path fill-rule="evenodd" clip-rule="evenodd" fill="#FFFFFF" d="M268.43,30.649c0.062,0.085,0.17,0.166,0.178,0.255
			c0.012,0.138-0.045,0.282-0.072,0.424c-0.062-0.085-0.171-0.166-0.179-0.255C268.345,30.935,268.401,30.791,268.43,30.649z"/>
		
			<path fill-rule="evenodd" clip-rule="evenodd" fill="none" stroke="#000000" stroke-width="2" stroke-linecap="round" stroke-linejoin="round" stroke-miterlimit="10" d="
			M21.5,3.51c-4.181-3.665-8.226-2.321-11.428,1.068c-5.601,5.927-8.539,13.156-8.037,21.43c0.539,8.879,9.914,14.678,17.893,10.853
			c2.02-0.968,5.725-1.77,3.872-6.469c-0.849-2.154,3.06-2.681,5.189-2.318c6.206,1.056,7.56-0.261,7.074-6.568
			c-0.332-4.308,0.057-8.667-0.119-12.993c-0.077-1.884,0.621-3.514,2.089-3.863c1.636-0.389,2.315,1.285,3.044,2.824
			c2.611,5.509,1.499,11.615-3.578,17.537"/>
		
			<path fill-rule="evenodd" clip-rule="evenodd" fill="none" stroke="#000000" stroke-width="2" stroke-linecap="round" stroke-linejoin="round" stroke-miterlimit="10" d="
			M204.5,5.51c5.599,9.614,8.059,19.864,6.558,31.008c-0.268,1.984-0.499,3.804-2.572,4.445c-1.891,0.586-3.307-0.688-4.466-1.971
			c-2.462-2.725-3.527-6.224-5.02-9.482"/>
		
			<path fill-rule="evenodd" clip-rule="evenodd" fill="none" stroke="#000000" stroke-width="2" stroke-linecap="round" stroke-linejoin="round" stroke-miterlimit="10" d="
			M163.5,35.51c2.996,7.733,3.99,15.793,3.431,23.995c-0.268,3.908-2.715,7.962-6.401,7.651c-3.811-0.32-7.052-3.704-6.529-8.646"/>
		
			<path fill-rule="evenodd" clip-rule="evenodd" fill="none" stroke="#000000" stroke-width="2" stroke-linecap="round" stroke-linejoin="round" stroke-miterlimit="10" d="
			M102.5,42.01c-6.048,0.135-6.06-4.456-6.454-8.504c-0.401-4.12-1.865-6.731-6.548-6.543c-2.176,0.087-3.275,0.513-3.575,3.038
			c-0.956,8.056-1.997,8.395-8.923,3.509"/>
		
			<path fill-rule="evenodd" clip-rule="evenodd" fill="none" stroke="#000000" stroke-width="2" stroke-linecap="round" stroke-linejoin="round" stroke-miterlimit="10" d="
			M187.5,5.51c0.757,9.882,0.173,19.916,3.467,29.512c0.543,1.582,1.219,3.741,2.537,3.764c1.298,0.021,1.483-2.33,2.075-3.742
			c1.966-4.69,2.65-9.517,2.421-14.533"/>
		
			<path fill-rule="evenodd" clip-rule="evenodd" fill="none" stroke="#000000" stroke-width="2" stroke-linecap="round" stroke-linejoin="round" stroke-miterlimit="10" d="
			M219.5,31.51c-4.324,2.03-2.496,5.998-2.27,8.982c0.147,1.938,2.835,2.978,5.271,2.523c2.791-0.521,4.1-2.665,3.836-4.987
			c-0.213-1.872,0.19-5.33-3.852-4.602c-0.559,0.101-1.318-0.917-1.985-1.417"/>
		
			<path fill-rule="evenodd" clip-rule="evenodd" fill="none" stroke="#000000" stroke-width="2" stroke-linecap="round" stroke-linejoin="round" stroke-miterlimit="10" d="
			M133,24.51c1,2.667,1.718,5.495,3.114,7.935c0.75,1.31,0.898,4.046,3.368,3.483c2.057-0.47,1.815-2.851,2.502-4.425
			c0.42-0.962,0.683-1.993,1.016-2.993"/>
		
			<path fill-rule="evenodd" clip-rule="evenodd" fill="none" stroke="#000000" stroke-width="2" stroke-linecap="round" stroke-linejoin="round" stroke-miterlimit="10" d="
			M236,42.51c-0.698-3.377,1.204-6.546,0.631-10.021c-0.358-2.176,1.595-1.37,2.872-0.988c3.827,1.144,7.062,0.46,9.513-2.979
			c2.527-3.547,3.346-7.344,1.962-11.503c-0.454-1.366-1.285-2.792-2.966-2.451c-2.29,0.465-3.648,1.899-4.069,4.434
			c-0.672,4.036-0.831,8.01,0.058,12.01"/>
		
			<path fill-rule="evenodd" clip-rule="evenodd" fill="none" stroke="#000000" stroke-width="2" stroke-linecap="round" stroke-linejoin="round" stroke-miterlimit="10" d="
			M244,32.01c1.806,3.094,2.005,7.017,4.993,9.509c2.73,2.277,5.541,3.786,9.007,1.491"/>
		
			<path fill-rule="evenodd" clip-rule="evenodd" fill="none" stroke="#000000" stroke-width="2" stroke-linecap="round" stroke-linejoin="round" stroke-miterlimit="10" d="
			M37,27.51c1,3,1.478,6.334,3.129,8.917C42.3,39.822,45.43,42.305,49,37.51"/>
		
			<path fill-rule="evenodd" clip-rule="evenodd" fill="none" stroke="#000000" stroke-width="2" stroke-linecap="round" stroke-linejoin="round" stroke-miterlimit="10" d="
			M142.5,9.51c0.333,6,0.667,12,1,18"/>
		
			<path fill-rule="evenodd" clip-rule="evenodd" fill="none" stroke="#000000" stroke-width="2" stroke-linecap="round" stroke-linejoin="round" stroke-miterlimit="10" d="
			M60.5,34.01c-0.218-2.449-2.424-3.347-4.049-3.839c-1.967-0.596-5.015-1.438-6.264,0.462c-1.154,1.756-1.88,4.665-0.144,6.843
			c1.72,2.157,4.043,4.392,6.898,3.369c2.146-0.769,5.227-2.182,3.559-5.835"/>
		
			<path fill-rule="evenodd" clip-rule="evenodd" fill="none" stroke="#000000" stroke-width="2" stroke-linecap="round" stroke-linejoin="round" stroke-miterlimit="10" d="
			M33.5,29.51c1.625,2.5,3.562,5.092-0.017,7.475c-3.572,2.377-6.528,1.146-8.983-1.975"/>
		
			<path fill-rule="evenodd" clip-rule="evenodd" fill="none" stroke="#000000" stroke-width="2" stroke-linecap="round" stroke-linejoin="round" stroke-miterlimit="10" d="
			M144,28.51c0.667,1.5,1.305,3.014,2.007,4.497c1.041,2.2,1.97,5.06,4.511,5.341c2.837,0.313,2.912-3.235,4.482-4.838"/>
		
			<path fill-rule="evenodd" clip-rule="evenodd" fill="none" stroke="#000000" stroke-width="2" stroke-linecap="round" stroke-linejoin="round" stroke-miterlimit="10" d="
			M65.5,32.51c0.333,0.5,0.881,0.966,0.965,1.506c0.59,3.763,3.177,6.565,6.423,5.224c3.565-1.474,5.181-5.276,2.112-9.229"/>
		
			<path fill-rule="evenodd" clip-rule="evenodd" fill="none" stroke="#000000" stroke-width="2" stroke-linecap="round" stroke-linejoin="round" stroke-miterlimit="10" d="
			M265.5,17.51c2.789,5.028,0.645,10.826,2.5,16"/>
		
			<path fill-rule="evenodd" clip-rule="evenodd" fill="none" stroke="#000000" stroke-width="2" stroke-linecap="round" stroke-linejoin="round" stroke-miterlimit="10" d="
			M131.5,7.51c0.167,5.167,0.333,10.333,0.5,15.5"/>
		
			<path fill-rule="evenodd" clip-rule="evenodd" fill="none" stroke="#000000" stroke-width="2" stroke-linecap="round" stroke-linejoin="round" stroke-miterlimit="10" d="
			M265.5,35.51c-2.167-1.489-4.658-2.931-6.396,0.061c-1.377,2.367-2.459,5.586-0.018,7.847c2.202,2.038,4.647,1.141,6.97-0.842
			c2.688-2.294,3.352-4.854,2.444-8.065"/>
		
			<path fill-rule="evenodd" clip-rule="evenodd" fill="none" stroke="#000000" stroke-width="2" stroke-linecap="round" stroke-linejoin="round" stroke-miterlimit="10" d="
			M235,36.51c-1.586-6.825-5.977-4.302-10-3"/>
		
			<path fill-rule="evenodd" clip-rule="evenodd" fill="none" stroke="#000000" stroke-width="2" stroke-linecap="round" stroke-linejoin="round" stroke-miterlimit="10" d="
			M155,23.51c-0.614,3.5-0.921,7.037,1.548,9.959c1.32,1.564,2.71,3.343,5.483,2.11c2.603-1.158,1.919-3.186,1.938-5.07
			c0.01-0.998-0.302-2-0.469-3"/>
		
			<path fill-rule="evenodd" clip-rule="evenodd" fill="none" stroke="#000000" stroke-width="2" stroke-linecap="round" stroke-linejoin="round" stroke-miterlimit="10" d="
			M131,24.51c-1.148,3.237-1.883,6.557-2,10"/>
		
			<path fill-rule="evenodd" clip-rule="evenodd" fill="none" stroke="#000000" stroke-width="2" stroke-linecap="round" stroke-linejoin="round" stroke-miterlimit="10" d="
			M50.5,34.01c7.65,2.32,12.144,1.161,15.5-4"/>
		
			<path fill-rule="evenodd" clip-rule="evenodd" fill="none" stroke="#000000" stroke-width="2" stroke-linecap="round" stroke-linejoin="round" stroke-miterlimit="10" d="
			M269,40.01c1.785,1.44,0.939,4.554,3.5,5.5"/>
		
			<path fill-rule="evenodd" clip-rule="evenodd" fill="none" stroke="#000000" stroke-width="2" stroke-linecap="round" stroke-linejoin="round" stroke-miterlimit="10" d="
			M30.5,29.51c-1.437,1.756-3.7,1.243-5.5,2"/>
		
			<path fill-rule="evenodd" clip-rule="evenodd" fill="none" stroke="#000000" stroke-width="2" stroke-linecap="round" stroke-linejoin="round" stroke-miterlimit="10" d="
			M269,28.51c0.251,1.667,2.063,3.333,0,5"/>
	</g>
</g>
</svg>
